<svg width="73" height="73" viewBox="0 0 73 73" fill="none" xmlns="http://www.w3.org/2000/svg">
<path d="M67.3686 46.5748C65.7591 46.5748 64.3152 47.2584 63.2882 48.3406L48.7291 39.5119C49.1829 38.4604 49.4434 37.3077 49.4434 36.0907C49.4434 33.4053 48.2111 31.0142 46.2889 29.4293L53.4074 17.8139C54.2474 18.1511 55.1579 18.3473 56.1144 18.3473C60.0844 18.3473 63.3279 15.1131 63.3279 11.1341C63.3279 7.15507 60.0936 3.92094 56.1144 3.92094C52.1351 3.92094 49.0909 6.9803 48.9253 10.8122C48.9253 10.9225 48.91 11.0237 48.91 11.1341C48.91 11.3057 48.9253 11.4713 48.9345 11.6368L40.4366 13.6692C39.6671 11.9832 38.1618 10.711 36.3316 10.2481C35.8533 10.1316 35.3506 10.0611 34.8324 10.0611C34.5105 10.0611 34.1886 10.0917 33.8759 10.1408C31.8832 10.4535 30.2032 11.7195 29.3325 13.4608L17.9528 10.291C17.9926 10.009 18.0141 9.71774 18.0325 9.42649C18.0325 9.2916 18.057 9.15979 18.057 9.0249C18.057 4.04959 14.0072 1.73603e-06 9.03163 1.73603e-06C4.04987 -0.00306438 0 4.05571 0 9.03118C0 14.0066 4.04979 18.0561 9.02535 18.0561C11.3491 18.0561 13.4676 17.1702 15.0678 15.7171L33.5658 31.4588C32.9772 32.3785 32.5603 33.4116 32.3579 34.5182L20.5002 33.9756C20.0618 31.3148 17.7442 29.2823 14.9666 29.2823C11.8672 29.2823 9.3472 31.8021 9.3472 34.9014C9.3472 38.0006 11.8672 40.5205 14.9666 40.5205C17.5724 40.5205 19.7614 38.7395 20.3898 36.33L32.2476 36.8726C32.4285 38.8744 33.2991 40.68 34.6173 42.0534L26.4317 52.421C24.7119 51.3297 22.6794 50.6952 20.4996 50.6952C14.356 50.6952 9.34665 55.695 9.34665 61.8476C9.34665 68 14.3468 73 20.4996 73C26.6525 73 31.6526 68.0001 31.6526 61.8476C31.6526 58.733 30.3651 55.9066 28.2927 53.8837L36.4783 43.516C37.7567 44.2702 39.2496 44.7177 40.8407 44.7177C41.4293 44.7177 42.0088 44.6564 42.5667 44.546L45.6661 53.359C44.4184 54.199 43.5937 55.6275 43.5937 57.243C43.5937 59.8242 45.6968 61.9272 48.2781 61.9272C50.8594 61.9272 52.9625 59.8242 52.9625 57.243C52.9625 54.6618 50.8594 52.5589 48.2781 52.5589C48.1432 52.5589 48.0114 52.5681 47.8857 52.5834L44.7771 43.7641C45.8379 43.2154 46.7698 42.4612 47.5148 41.5447L62.0739 50.3734C61.8685 50.9528 61.7612 51.5659 61.7612 52.2096C61.7612 55.3088 64.2811 57.8287 67.3806 57.8287C70.48 57.8287 73 55.3089 73 52.2096C73 49.1103 70.48 46.5905 67.3806 46.5905L67.3686 46.5748ZM64.1036 52.194C64.1036 50.3975 65.5629 48.9291 67.3686 48.9291C69.1743 48.9291 70.6336 50.3884 70.6336 52.194C70.6336 53.9996 69.1651 55.4588 67.3686 55.4588C65.5721 55.4588 64.1036 53.9996 64.1036 52.194ZM34.557 36.0904C34.557 32.6387 37.3651 29.8275 40.8202 29.8275C44.2721 29.8275 47.0834 32.6355 47.0834 36.0904C47.0834 39.5422 44.2752 42.3533 40.8202 42.3533C37.3683 42.3533 34.557 39.5453 34.557 36.0904ZM9.02622 15.702C5.34435 15.702 2.35531 12.7131 2.35531 9.03139C2.35531 5.3497 5.34435 2.36081 9.02622 2.36081C12.7081 2.36081 15.6971 5.3497 15.6971 9.03139C15.6971 12.7131 12.7081 15.702 9.02622 15.702ZM17.328 12.5629L28.6984 15.7327C28.683 15.8982 28.6738 16.0545 28.6738 16.2201C28.6738 19.6167 31.436 22.3818 34.8359 22.3818C38.2326 22.3818 40.9979 19.6198 40.9979 16.2201C40.9979 16.1342 40.9887 16.0484 40.9826 15.9626L49.4743 13.9393C49.9065 14.9663 50.5717 15.8614 51.4056 16.5849L44.2871 28.2066C43.2264 27.7437 42.0584 27.477 40.8352 27.477C38.6371 27.477 36.6291 28.317 35.1054 29.675L16.598 13.9277C16.88 13.4955 17.1253 13.0418 17.3276 12.5636L17.328 12.5629ZM34.8301 12.4127C36.927 12.4127 38.6377 14.1232 38.6377 16.2201C38.6377 18.3169 36.9332 20.0275 34.8301 20.0275C32.727 20.0275 31.0225 18.3169 31.0225 16.2201C31.0225 14.1232 32.7332 12.4127 34.8301 12.4127ZM51.2562 11.1343C51.2562 8.45811 53.4298 6.27549 56.1153 6.27549C58.8009 6.27549 60.9744 8.44893 60.9744 11.1343C60.9744 13.8198 58.8009 15.9932 56.1153 15.9932C53.4298 15.9932 51.2562 13.8198 51.2562 11.1343ZM11.6938 34.9044C11.6938 33.1079 13.1623 31.6395 14.9588 31.6395C16.7553 31.6395 18.2238 33.0988 18.2238 34.9044C18.2238 36.71 16.7553 38.1692 14.9588 38.1692C13.1623 38.1692 11.6938 36.71 11.6938 34.9044ZM11.6938 61.8378C11.6938 56.9881 15.6424 53.0397 20.4923 53.0397C25.3423 53.0397 29.2909 56.9881 29.2909 61.8378C29.2909 66.6875 25.3423 70.6359 20.4923 70.6359C15.6424 70.6359 11.6938 66.6876 11.6938 61.8378ZM50.5884 57.2303C50.5884 58.5178 49.5461 59.5602 48.2584 59.5602C46.9708 59.5602 45.9285 58.5179 45.9285 57.2303C45.9285 55.9427 46.9708 54.9005 48.2584 54.9005C49.5461 54.9005 50.5884 55.9427 50.5884 57.2303Z" fill="white"/>
</svg>
