<svg width="70" height="70" viewBox="0 0 70 70" fill="none" xmlns="http://www.w3.org/2000/svg">
<path d="M33.6162 29.2031L13.9941 12.5078C13.8375 12.7136 13.6625 12.9162 13.4844 13.1066L33.1065 29.8019C33.2631 29.5961 33.4381 29.3934 33.6162 29.2031Z" fill="white"/>
<path d="M34.1558 40.4746L25.0605 51.9894C25.2724 52.1461 25.4782 52.3027 25.6808 52.4777L34.7761 40.9628C34.5643 40.8124 34.3585 40.6496 34.162 40.4746H34.1558Z" fill="white"/>
<path d="M31.5063 33.8256L18.2439 33.2207C18.2439 33.276 18.2531 33.3312 18.2531 33.3927C18.2531 33.6045 18.2377 33.8011 18.207 34.0068L31.4695 34.6117V34.581C31.4695 34.3292 31.4849 34.0774 31.5094 33.8256H31.5063Z" fill="white"/>
<path d="M41.5488 42.0939L45.1171 52.2275C45.3535 52.117 45.5961 52.031 45.8571 51.9696L42.2889 41.8359C42.0463 41.9373 41.8006 42.0232 41.5488 42.0939Z" fill="white"/>
<path d="M28.2543 12.8516L15.5107 9.29883C15.4554 9.55676 15.3848 9.80857 15.2988 10.0542L28.0425 13.607C28.0977 13.3491 28.1684 13.0973 28.2636 12.8516H28.2543Z" fill="white"/>
<path d="M48.3 10.6914L38.4492 13.0405C38.5291 13.2923 38.5843 13.5441 38.6304 13.8021L48.4811 11.4529C48.4013 11.2011 48.346 10.9494 48.3 10.6914Z" fill="white"/>
<path d="M50.9467 14.8398L43.0762 27.6848C43.3034 27.8107 43.5306 27.9519 43.7456 28.1024L51.6161 15.2575C51.3797 15.1316 51.1617 14.9903 50.9467 14.8398Z" fill="white"/>
<path d="M45.8145 38.9724L61.583 48.5409C61.6997 48.3044 61.8348 48.0772 61.9915 47.8653L46.2229 38.2969C46.097 38.5241 45.9649 38.7513 45.8145 38.9663V38.9724Z" fill="white"/>
<path d="M14.9361 7.46798C14.9361 11.592 11.5921 14.936 7.46805 14.936C3.34404 14.936 0 11.592 0 7.46798C0 3.344 3.34404 0 7.46805 0C11.5921 0 14.9361 3.344 14.9361 7.46798Z" fill="white"/>
<path d="M39.3214 41.6387C43.212 41.6387 46.3811 38.4698 46.3811 34.5791C46.3811 30.6885 43.2121 27.5195 39.3214 27.5195C35.4307 27.5195 32.2617 30.6885 32.2617 34.5791C32.2617 38.4698 35.4307 41.6387 39.3214 41.6387Z" fill="white"/>
<path d="M61.8594 50.7029C61.8594 52.9353 63.6742 54.7594 65.9159 54.7594C68.1575 54.7594 69.9723 52.9446 69.9723 50.7029C69.9723 48.4613 68.1575 46.6465 65.9159 46.6465C63.6742 46.6465 61.8594 48.4613 61.8594 50.7029Z" fill="white"/>
<path d="M46.7723 52.6367C45.0496 52.6367 43.6523 54.0369 43.6523 55.7566C43.6523 57.4793 45.0526 58.8765 46.7723 58.8765C48.4949 58.8765 49.8922 57.4763 49.8922 55.7566C49.8922 54.0339 48.492 52.6367 46.7723 52.6367Z" fill="white"/>
<path d="M17.4665 33.3846C17.4665 31.1522 15.6517 29.3281 13.41 29.3281C11.1683 29.3281 9.35352 31.1429 9.35352 33.3846C9.35352 35.6262 11.1683 37.441 13.41 37.441C15.6517 37.441 17.4665 35.6262 17.4665 33.3846Z" fill="white"/>
<path d="M54.6357 15.2263C57.7494 15.2263 60.2889 12.696 60.2889 9.5731C60.2889 6.45322 57.7586 3.91992 54.6357 3.91992C51.5157 3.91992 48.9824 6.45023 48.9824 9.5731C48.9824 12.693 51.5128 15.2263 54.6357 15.2263Z" fill="white"/>
<path d="M28.5519 60.3647C28.5519 65.6679 24.2528 69.9638 18.9527 69.9638C13.6526 69.9638 9.35352 65.6679 9.35352 60.3647C9.35352 55.0647 13.6526 50.7656 18.9527 50.7656C24.2528 50.7656 28.5519 55.0647 28.5519 60.3647Z" fill="white"/>
<path d="M33.3148 10.0684C30.7753 10.0684 28.7148 12.1288 28.7148 14.6683C28.7148 17.2078 30.7753 19.2683 33.3148 19.2683C35.8544 19.2683 37.9148 17.2078 37.9148 14.6683C37.9148 12.1288 35.8544 10.0684 33.3148 10.0684Z" fill="white"/>
</svg>
