<svg width="89" height="89" viewBox="0 0 89 89" fill="none" xmlns="http://www.w3.org/2000/svg">
<path d="M45.0002 74.9884V89.0004C56.5312 88.8714 67.3712 84.391 75.6092 76.3204L65.699 66.4102C60.0974 71.8321 52.7892 74.8595 45.0002 74.9884Z" fill="white"/>
<path d="M12.6799 75.6092L22.5901 65.699C17.1682 60.0974 14.1409 52.789 14.012 45H0C0.12891 56.531 4.6093 67.3712 12.6799 75.6092Z" fill="white"/>
<path d="M43.9996 14.012V0C32.4686 0.12891 21.6286 4.6094 13.3906 12.68L23.3008 22.5902C28.9024 17.1683 36.2106 14.1409 43.9996 14.012Z" fill="white"/>
<path d="M74.9884 43.9996H89.0004C88.8714 32.4686 84.391 21.6286 76.3204 13.3906L66.4102 23.3008C71.8321 28.9024 74.8595 36.2106 74.9884 43.9996Z" fill="white"/>
<path d="M56.1598 34.3281C56.3082 34.5 56.4684 34.6797 56.609 34.8594C56.7809 35.0703 56.9293 35.2891 57.0895 35.5078C57.2184 35.6992 57.359 35.8789 57.4879 36.0664C57.6364 36.2969 57.7692 36.5274 57.8981 36.7578C58.0074 36.9571 58.1285 37.1485 58.2379 37.3477C58.3668 37.586 58.4762 37.836 58.5895 38.086C58.6793 38.2852 58.7809 38.4844 58.859 38.6875C58.9606 38.9492 59.0504 39.207 59.1403 39.4766C59.2106 39.6758 59.2887 39.875 59.3512 40.086C59.4293 40.3672 59.4996 40.6563 59.5621 40.9453C59.6129 41.1445 59.6637 41.336 59.7028 41.5235C59.7613 41.8516 59.8043 42.1836 59.8512 42.5117C59.8707 42.6719 59.902 42.8399 59.9215 43C59.9528 43.3281 59.9606 43.6719 59.9723 44.0117H73.9843C73.8632 36.4922 70.9335 29.4217 65.7031 24.0117L55.8047 33.9101C55.9336 34.0507 56.043 34.1914 56.1641 34.332L56.1598 34.3281Z" fill="white"/>
<path d="M23.2894 64.9999L33.1878 55.1015C33.0589 54.9609 32.9495 54.8203 32.8284 54.6797C32.68 54.5078 32.5198 54.3281 32.3792 54.1484C32.2073 53.9375 32.0589 53.7187 31.8987 53.5C31.7698 53.3086 31.6292 53.1289 31.5003 52.9414C31.3518 52.7109 31.219 52.4804 31.0901 52.25C30.9807 52.0508 30.8597 51.8594 30.7503 51.6601C30.6214 51.4219 30.512 51.1719 30.3987 50.9219C30.3089 50.7226 30.2073 50.5234 30.1292 50.3203C30.0276 50.0586 29.9378 49.8008 29.8479 49.5312C29.7776 49.332 29.6995 49.1328 29.637 48.9219C29.5589 48.6406 29.4886 48.3515 29.4261 48.0625C29.3753 47.8633 29.3245 47.6719 29.2854 47.4844C29.2268 47.1562 29.1839 46.8242 29.137 46.4961C29.1175 46.3359 29.0862 46.168 29.0667 46.0078C29.0354 45.6797 29.0276 45.3359 29.0159 44.9961H15.0039C15.125 52.5156 18.0547 59.5861 23.2851 64.9961L23.2894 64.9999Z" fill="white"/>
<path d="M29.0196 43.9999C29.1407 40.2108 30.6094 36.6718 33.211 33.9219L23.3008 24.0117C18.0625 29.4219 15.1406 36.4807 15.0117 43.9997H29.0237L29.0196 43.9999Z" fill="white"/>
<path d="M33.9216 33.2109C34.1716 32.9805 34.4099 32.7422 34.6716 32.5312C34.8005 32.4219 34.9411 32.332 35.07 32.2305C35.3318 32.0312 35.5896 31.8203 35.8591 31.6406C36.031 31.5312 36.1989 31.4297 36.3708 31.332C36.6208 31.1719 36.8708 31.0117 37.1325 30.8711C37.3239 30.7695 37.5114 30.6797 37.7028 30.5898C37.9528 30.4688 38.2028 30.3398 38.4646 30.2305C38.6638 30.1523 38.8747 30.082 39.0739 30C39.3357 29.8984 39.5857 29.8008 39.8552 29.7187C40.0661 29.6484 40.2849 29.5977 40.4958 29.5391C40.7575 29.4687 41.0153 29.3984 41.2849 29.3398C41.5036 29.2891 41.7341 29.2617 41.9568 29.2187C42.2263 29.1797 42.488 29.1289 42.7653 29.0977C42.9958 29.0664 43.2263 29.0586 43.4568 29.0469C43.6482 29.0352 43.8278 29.0078 44.0153 29.0078V15.0078C36.4958 15.1289 29.4373 18.0664 24.0273 23.2969L33.9375 33.2071L33.9216 33.2109Z" fill="white"/>
<path d="M55.0781 55.7891C54.8281 56.0195 54.5898 56.2578 54.3281 56.4688C54.1992 56.5781 54.0586 56.668 53.9297 56.7695C53.668 56.9688 53.4102 57.1797 53.1406 57.3594C52.9687 57.4688 52.8008 57.5703 52.6289 57.668C52.3789 57.8281 52.1289 57.9883 51.8672 58.1289C51.6758 58.2305 51.4883 58.3203 51.2969 58.4102C51.0469 58.5312 50.7969 58.6602 50.5352 58.7695C50.3359 58.8477 50.125 58.918 49.9258 59C49.6641 59.1016 49.4141 59.1992 49.1445 59.2812C48.9336 59.3516 48.7148 59.4023 48.5039 59.4609C48.2422 59.5312 47.9844 59.6016 47.7148 59.6602C47.4961 59.7109 47.2656 59.7383 47.043 59.7812C46.7734 59.8203 46.5117 59.8711 46.2344 59.9023C46.0039 59.9336 45.7734 59.9414 45.543 59.9531C45.3516 59.9648 45.1719 59.9922 44.9844 59.9922V73.9922C52.5039 73.8711 59.5624 70.9336 64.9724 65.7031L55.0622 55.7929L55.0781 55.7891Z" fill="white"/>
<path d="M59.9805 45C59.8594 48.7891 58.3907 52.3281 55.7891 55.078L65.6993 64.9882C70.9376 59.578 73.8595 52.5192 73.9884 45.0002H59.9764L59.9805 45Z" fill="white"/>
<path d="M30 44.5C30 48.3711 31.5117 52.0117 34.25 54.75C36.9805 57.4883 40.6211 59 44.5 59C48.3789 59 52.0117 57.4883 54.75 54.75C57.4883 52.0195 59 48.3789 59 44.5C59 40.6211 57.4883 36.9883 54.75 34.25C52.0195 31.5117 48.3789 30 44.5 30C40.6211 30 36.9883 31.5117 34.25 34.25C31.5117 36.9805 30 40.6211 30 44.5Z" fill="white"/>
</svg>
