<svg width="93" height="93" viewBox="0 0 93 93" fill="none" xmlns="http://www.w3.org/2000/svg">
<path d="M14.6798 79.8201C15.0587 79.8201 15.4493 79.6717 15.7384 79.3787L35.9494 59.1677C38.5197 61.3279 41.6486 62.6286 45.0002 62.9294V91.4994C45.0002 92.3275 45.6721 92.9994 46.5002 92.9994C58.9222 92.9994 70.6022 88.1596 79.3792 79.3784C79.6682 79.0893 79.8206 78.6987 79.8206 78.3198C79.8206 77.9409 79.6722 77.5503 79.3792 77.2612L69.8089 67.6909L69.8401 67.6596C69.8987 67.5893 69.9612 67.519 70.0198 67.4487C70.2894 67.1479 70.5511 66.8471 70.8089 66.5385C70.9183 66.4096 71.0198 66.2768 71.1292 66.1479C71.3284 65.8979 71.5276 65.6479 71.7308 65.3862C71.8401 65.2378 71.9495 65.0854 72.0589 64.9253C72.2386 64.687 72.4104 64.437 72.5784 64.187C72.6878 64.0268 72.7972 63.8667 72.8987 63.7065C73.0589 63.4565 73.219 63.2065 73.3792 62.9448C73.4807 62.7846 73.5784 62.6167 73.68 62.4565C73.8401 62.1948 73.9807 61.9253 74.1292 61.6557C74.219 61.4956 74.3089 61.3354 74.3909 61.1753C74.5511 60.8745 74.6995 60.5737 74.8401 60.2768C74.9104 60.1479 74.969 60.0073 75.0393 59.8784C75.4495 58.9995 75.8206 58.1089 76.1487 57.1987C76.1995 57.0581 76.2503 56.9096 76.2972 56.769C76.4066 56.4604 76.5159 56.1401 76.6058 55.8198C76.6565 55.6479 76.7073 55.4682 76.7542 55.3002C76.8323 55.0112 76.9261 54.7104 76.9925 54.4213C77.0433 54.2299 77.0823 54.0502 77.1331 53.8627C77.2034 53.5737 77.262 53.2846 77.3245 52.9917C77.3636 52.8002 77.4026 52.6127 77.4339 52.4213C77.4925 52.1206 77.5433 51.8315 77.5823 51.5307C77.6136 51.3393 77.6409 51.1596 77.6722 50.9721C77.723 50.6518 77.7503 50.3315 77.7933 50.0112C77.8128 49.8393 77.8323 49.6831 77.8519 49.5112C77.8909 49.1128 77.9222 48.7104 77.9417 48.3003C77.9417 48.2104 77.9534 48.1206 77.9612 48.0308V47.9917H91.4922C92.3204 47.9917 92.9922 47.3198 92.9922 46.4917C92.9922 34.0697 88.1524 22.3897 79.3712 13.6127C78.7814 13.0229 77.8321 13.0229 77.2501 13.6127L57.0391 33.8237C54.4688 31.6635 51.3399 30.3628 47.9883 30.062L48.0001 1.5C48.0001 0.67188 47.3282 0 46.5001 0C34.0781 0 22.3981 4.8398 13.6211 13.621C13.332 13.9101 13.1797 14.3007 13.1797 14.6796C13.1797 15.0585 13.3281 15.4491 13.6211 15.7382L23.1914 25.3085L23.1601 25.3397C23.1015 25.4101 23.039 25.4804 22.9804 25.5507C22.7109 25.8515 22.4492 26.1522 22.1914 26.4608C22.082 26.5898 21.9804 26.7226 21.8711 26.8515C21.6718 27.1015 21.4726 27.3515 21.2695 27.6132C21.1601 27.7616 21.0507 27.914 20.9414 28.0741C20.7617 28.3124 20.5898 28.5624 20.4218 28.8124C20.3125 28.9726 20.2031 29.1327 20.1015 29.2929C19.9414 29.5429 19.7812 29.7929 19.6211 30.0546C19.5195 30.2148 19.4218 30.3827 19.3203 30.5429C19.1601 30.8046 19.0195 31.0741 18.8711 31.3437C18.7812 31.5038 18.6914 31.664 18.6093 31.8241C18.4492 32.1249 18.3008 32.4257 18.1601 32.7226C18.0898 32.8515 18.0312 32.9921 17.9609 33.121C17.5507 33.9999 17.1797 34.8905 16.8515 35.8007C16.8007 35.9413 16.7499 36.0898 16.7031 36.2304C16.5937 36.539 16.4843 36.8593 16.3945 37.1796C16.3437 37.3515 16.2929 37.5312 16.246 37.6992C16.1679 37.9882 16.0742 38.289 16.0078 38.5781C15.957 38.7695 15.9179 38.9492 15.8671 39.1367C15.7968 39.4257 15.7382 39.7148 15.6757 40.0077C15.6367 40.1992 15.5976 40.3867 15.5663 40.5781C15.5077 40.8788 15.457 41.1679 15.4179 41.4687C15.3867 41.6601 15.3593 41.8398 15.3281 42.0273C15.2773 42.3476 15.2499 42.6679 15.207 42.9882C15.1874 43.1601 15.1679 43.3163 15.1484 43.4882C15.1093 43.8866 15.0781 44.289 15.0585 44.6991C15.0585 44.7889 15.0468 44.8788 15.039 44.9686V45.0077L1.5 45.0116C0.67188 45.0116 0 45.6835 0 46.5116C0 58.9336 4.8398 70.6136 13.621 79.3906C13.9101 79.6797 14.3007 79.832 14.6796 79.832L14.6798 79.8201ZM25.3208 65.5581C20.9224 60.687 18.3794 54.5461 18.0396 47.9991H30.0706V48.0499C30.0901 48.2218 30.1096 48.378 30.1409 48.5499C30.18 48.8897 30.2307 49.2413 30.2893 49.5694C30.3284 49.7608 30.3675 49.96 30.4182 50.1475C30.4886 50.4561 30.5589 50.7569 30.6487 51.0577C30.7073 51.2569 30.7698 51.4561 30.8401 51.6475C30.93 51.9366 31.0315 52.2178 31.1409 52.4991C31.219 52.6983 31.3011 52.8897 31.3792 53.0889C31.5003 53.3702 31.6292 53.6397 31.7698 53.8975C31.8596 54.0889 31.9612 54.2686 32.0589 54.4561C32.2073 54.7256 32.3675 54.9952 32.5393 55.2569C32.6487 55.4288 32.7503 55.5967 32.8596 55.7569C33.0589 56.0459 33.2815 56.3272 33.4886 56.6084C33.5901 56.7295 33.68 56.8584 33.7776 56.9795C33.7971 56.9991 33.8089 57.0186 33.8167 57.0381L25.305 65.5498L25.3208 65.5581ZM56.0398 36.9561C58.5906 39.4952 60.0007 42.8858 60.0007 46.4952C60.0007 50.1046 58.5905 53.4835 56.0398 56.0343C53.5007 58.5851 50.1101 59.9952 46.5007 59.9952C42.8913 59.9952 39.5124 58.585 36.9616 56.0343C34.4108 53.4952 33.0007 50.1046 33.0007 46.4952C33.0007 42.8858 34.4109 39.5069 36.9616 36.9561C39.5007 34.4053 42.8913 32.9952 46.5007 32.9952C50.1101 32.9952 53.489 34.4054 56.0398 36.9561ZM48.0007 62.9251H48.071C48.2194 62.9134 48.3718 62.886 48.5319 62.8665C48.8913 62.8274 49.2429 62.7767 49.6022 62.7063C49.7936 62.6673 49.9811 62.6282 50.1725 62.5774C50.4811 62.5071 50.7936 62.4368 51.0944 62.347C51.2936 62.2884 51.485 62.2259 51.6843 62.1556C51.9733 62.054 52.2546 61.9563 52.5436 61.847C52.7429 61.7688 52.9343 61.6868 53.1218 61.6087C53.403 61.4876 53.6725 61.3587 53.9421 61.2181C54.1335 61.1282 54.3132 61.0267 54.4929 60.929C54.7624 60.7806 55.0319 60.6204 55.2936 60.4485C55.4655 60.3392 55.6335 60.2376 55.7936 60.1282C56.0749 59.9368 56.3522 59.7298 56.6218 59.5071C56.7507 59.4056 56.8913 59.3079 57.0202 59.1986C57.0319 59.1868 57.0514 59.179 57.0593 59.1673L65.571 67.679C60.6999 72.0774 54.559 74.6204 48.012 74.9602V62.9292L48.0007 62.9251ZM59.1727 57.0462C61.3329 54.4759 62.6336 51.347 62.9344 47.9954H74.9654C74.6255 54.5462 72.0865 60.6864 67.6842 65.5544L59.1725 57.0427L59.1727 57.0462ZM45.0007 30.0662H44.9304C44.7819 30.0779 44.6296 30.1053 44.4694 30.1248C44.11 30.1639 43.7585 30.2146 43.3991 30.285C43.2077 30.324 43.0202 30.3631 42.8288 30.4139C42.5202 30.4842 42.2077 30.5545 41.9069 30.6443C41.7077 30.7029 41.5163 30.7654 41.3171 30.8357C41.028 30.9373 40.7468 31.035 40.4577 31.1443C40.2585 31.2225 40.0671 31.3045 39.8796 31.3826C39.5984 31.5037 39.3288 31.6326 39.0593 31.7732C38.8679 31.8631 38.6882 31.9647 38.5085 32.0623C38.239 32.2107 37.9694 32.3709 37.7077 32.5428C37.5358 32.6522 37.3679 32.7537 37.2077 32.8631C36.9265 33.0545 36.657 33.2615 36.3796 33.4725C36.2507 33.574 36.1101 33.6717 35.9812 33.7811C35.9695 33.7928 35.9499 33.8006 35.9421 33.8123L27.4304 25.3006C32.3015 20.9022 38.4424 18.3592 44.9894 18.0194V30.0504L45.0007 30.0662ZM33.8287 35.9451C31.6685 38.5154 30.3678 41.6443 30.067 44.9959H18.036C18.3758 38.4451 20.9149 32.3049 25.3172 27.4369L33.8289 35.9486L33.8287 35.9451ZM48.0007 89.9651V77.9531C55.3523 77.6133 62.2387 74.7539 67.6807 69.7929L76.1807 78.2929C68.4619 85.5038 58.5597 89.6131 48.0007 89.9651ZM77.9617 44.9961C77.6218 37.6445 74.7625 30.7581 69.8015 25.3161L78.3015 16.8161C85.5124 24.5349 89.6215 34.4371 89.9735 44.9961H77.9617ZM67.6807 27.4371C72.0791 32.3082 74.6221 38.4491 74.9619 44.9961H62.9309V44.9453C62.9113 44.7735 62.8918 44.6172 62.8606 44.4453C62.8215 44.1055 62.7707 43.7656 62.7121 43.4258C62.6731 43.2266 62.634 43.0352 62.5832 42.8477C62.5129 42.5391 62.4426 42.2383 62.3527 41.9375C62.2942 41.7383 62.2317 41.5391 62.1613 41.3477C62.0715 41.0586 61.9699 40.7774 61.8606 40.4961C61.7824 40.2969 61.7004 40.1055 61.6223 39.9063C61.5012 39.625 61.3723 39.3555 61.2317 39.0977C61.1418 38.9063 61.0403 38.7266 60.9426 38.5391C60.7942 38.2696 60.634 38.0001 60.4621 37.7383C60.3527 37.5665 60.2512 37.3985 60.1418 37.2383C59.9426 36.9493 59.7199 36.668 59.5129 36.3868C59.4113 36.2657 59.3215 36.1368 59.2239 36.0079C59.2043 35.9883 59.1926 35.9688 59.1848 35.9493L67.6965 27.4376L67.6807 27.4371ZM45.0007 3.0311V15.0431C37.6491 15.3829 30.7627 18.2423 25.3207 23.2033L16.8207 14.7033C24.5395 7.4924 34.4417 3.3831 45.0007 3.0311ZM15.0397 48.0001C15.3795 55.3517 18.2389 62.2381 23.1999 67.6801L14.6999 76.1801C7.48898 68.4613 3.37988 58.5591 3.02788 48.0001H15.0397Z" fill="white"/>
</svg>
